:FULLY-SPECIFIED
:FORCE-ALL-JOINTS-BE-3DOF
:DEGREES
238
root 5.44836 15.6185 -25.8678 10.4998 20.6004 -5.19502
lfemur -35.9541 31.7616 -3.1104
ltibia 51.5217 0 0
lfoot -14.1343 3.3136 0
ltoes -4.12356 0 0
rfemur -23.513 -15.5934 4.51565
rtibia 43.4294 0 0
rfoot -22.2014 1.42703 0
rtoes 46.0261 0 0
lowerback 1.51939 -2.04656 1.59544
upperback -0.569078 -2.66806 1.97003
thorax -1.40342 -1.3371 1.1992
lowerneck -11.5115 -2.07778 0.290049
upperneck 1.19509 -2.83205 0.429532
head 2.39562 -1.39236 -0.0674713
lclavicle 8.60282e-15 -1.26782e-14 0
lhumerus -53.3402 -37.7843 120.325
lradius 60.8113 0 0
lwrist 19.0062 0 0
lhand 12.1848 15.2504 0
lfingers 7.12502 0 0
lthumb 37.1914 41.2298 0
rclavicle 8.60282e-15 -1.26782e-14 0
rhumerus -35.5293 -2.09108 -69.1892
rradius 95.8594 0 0
rwrist -16.5124 0 0
rhand 34.3139 -23.2849 0
rfingers 7.12502 0 0
rthumb 56.2366 -750.296 0
239
root 5.57796 15.6617 -25.8548 10.4251 22.6878 -4.8582
lfemur -35.8743 30.9635 -4.19185
ltibia 50.9192 0 0
lfoot -14.3033 2.40687 0
ltoes 0.243044 0 0
rfemur -23.0405 -14.0792 4.26351
rtibia 44.7772 0 0
rfoot -19.1597 0.175715 0
rtoes 42.1893 0 0
lowerback 1.5272 -2.0835 1.39384
upperback -0.583005 -2.72009 2.0346
thorax -1.40703 -1.36085 1.38016
lowerneck -11.3798 -2.51469 0.115989
upperneck 1.29375 -3.39332 0.449656
head 2.41312 -1.67252 -0.0610191
lclavicle 5.98933e-15 -1.14412e-14 0
lhumerus -53.179 -37.4849 120.236
lradius 60.8555 0 0
lwrist 19.0824 0 0
lhand 11.8015 15.0177 0
lfingers 7.12502 0 0
lthumb 36.828 41.0839 0
rclavicle 5.98933e-15 -1.14412e-14 0
rhumerus -36.0674 -2.42134 -68.942
rradius 91.6427 0 0
rwrist -11.9289 0 0
rhand 30.3847 -21.6354 0
rfingers 7.12502 0 0
rthumb 52.6365 -750.38 0
240
root 5.7172 15.7082 -25.8409 10.3449 24.9304 -4.49635
lfemur -35.7885 30.106 -5.35369
ltibia 50.272 0 0
lfoot -14.4849 1.43274 0
ltoes 4.93425 0 0
rfemur -22.5329 -12.4525 3.99263
rtibia 46.2252 0 0
rfoot -15.892 -1.16862 0
rtoes 38.0673 0 0
lowerback 1.53559 -2.12319 1.17725
upperback -0.597967 -2.77599 2.10398
thorax -1.41091 -1.38635 1.57457
lowerneck -11.2382 -2.98409 -0.0710104
upperneck 1.39974 -3.99631 0.471276
head 2.43194 -1.97349 -0.0540872
lclavicle 3.18156e-15 -1.01122e-14 0
lhumerus -53.0058 -37.1633 120.14
lradius 60.903 0 0
lwrist 19.1642 0 0
lhand 11.3896 14.7676 0
lfingers 7.12502 0 0
lthumb 36.4376 40.9273 0
rclavicle 3.18156e-15 -1.01122e-14 0
rhumerus -36.6454 -2.77614 -68.6763
rradius 87.1125 0 0
rwrist -7.00462 0 0
rhand 26.1635 -19.8633 0
rfingers 7.12502 0 0
rthumb 48.7688 -750.47 0
241
root 5.86331 15.7569 -25.8263 10.2606 27.2839 -4.11661
lfemur -35.6985 29.2061 -6.57296
ltibia 49.5928 0 0
lfoot -14.6754 0.410461 0
ltoes 9.85731 0 0
rfemur -22.0001 -10.7453 3.70836
rtibia 47.7448 0 0
rfoot -12.4627 -2.5794 0
rtoes 33.7417 0 0
lowerback 1.5444 -2.16483 0.949961
upperback -0.613669 -2.83464 2.17678
thorax -1.41498 -1.41312 1.77858
lowerneck -11.0897 -3.47668 -0.267252
upperneck 1.51096 -4.6291 0.493965
head 2.45168 -2.28935 -0.0468127
lclavicle 2.35023e-16 -8.71754e-15 0
lhumerus -52.8241 -36.8257 120.039
lradius 60.9528 0 0
lwrist 19.2501 0 0
lhand 10.9575 14.5052 0
lfingers 7.12502 0 0
lthumb 36.0279 40.7629 0
rclavicle 2.35023e-16 -8.71754e-15 0
rhumerus -37.2521 -3.14848 -68.3976
rradius 82.3584 0 0
rwrist -1.83698 0 0
rhand 21.7337 -18.0037 0
rfingers 7.12502 0 0
rthumb 44.7099 -750.565 0
